<svg width="44" height="42" viewBox="0 0 44 42" fill="none" xmlns="http://www.w3.org/2000/svg">
<path d="M5.16663 17.5V11.7952C5.16663 5.89773 6.63663 4.42773 12.5341 4.42773H30.9616C36.8591 4.42773 38.3291 5.89773 38.3291 11.7952" stroke="#F27979" stroke-linecap="round" stroke-linejoin="round"/>
<path d="M19.1666 37.5726V29.6626" stroke="#F27979" stroke-linecap="round" stroke-linejoin="round"/>
<path d="M13.4617 37.5723H19.1667" stroke="#F27979" stroke-linecap="round" stroke-linejoin="round"/>
<path d="M40.1666 22.4002V32.3927C40.1666 36.5402 39.1341 37.5727 34.9866 37.5727H28.7741C24.6266 37.5727 23.5941 36.5402 23.5941 32.3927V22.4002C23.5941 18.2527 24.6266 17.2202 28.7741 17.2202H34.9866C39.1341 17.2202 40.1666 18.2527 40.1666 22.4002Z" stroke="#F27979" stroke-linecap="round" stroke-linejoin="round"/>
<path d="M31.8445 31.9375H31.8602" stroke="#F27979" stroke-width="2" stroke-linecap="round" stroke-linejoin="round"/>
<g clip-path="url(#clip0_893_226062)">
<path d="M12.1269 22.7073L12.1266 22.7072L12.1032 22.6962C11.6884 22.5018 11.2885 22.3144 10.9223 22.1304C10.0345 21.6858 9.26202 21.4858 8.54838 21.4858C7.1232 21.4858 6.11767 22.3042 5.43306 22.9887C5.433 22.9888 5.43293 22.9889 5.43287 22.9889L1.99907 26.4264C1.99907 26.4264 1.99906 26.4264 1.99906 26.4265C1.1305 27.296 0.666763 28.1327 0.532265 28.9916C0.397609 29.8515 0.582107 30.803 1.14159 31.9222L12.1269 22.7073ZM12.1269 22.7073C13.3237 23.2676 14.4752 23.8092 15.3147 24.4356C16.1563 25.0636 16.5585 25.6816 16.5047 26.3755C16.4517 27.0571 16.0017 27.5404 15.186 27.9325C14.361 28.329 13.2876 28.5685 12.2074 28.8068C11.872 28.8804 11.5422 28.9531 11.2464 29.0275L11.2463 29.0275C10.5975 29.1907 10.2009 29.5333 9.51905 30.2152C9.51893 30.2153 9.51882 30.2154 9.5187 30.2155L9.36791 30.3658L9.36729 30.3664L9.30991 30.4238L9.30892 30.4248L9.216 30.5182C9.21596 30.5182 9.21591 30.5183 9.21587 30.5183C8.53572 31.2001 8.19332 31.5966 8.03008 32.244L8.02973 32.2454C7.95701 32.5374 7.88572 32.8608 7.8133 33.1893L7.80883 33.2095C7.57052 34.2903 7.33097 35.3646 6.9348 36.1903C6.54288 37.0072 6.06022 37.4571 5.38087 37.5102L5.37875 37.5104M12.1269 22.7073L5.37875 37.5104M5.37875 37.5104C5.34378 37.5133 5.30737 37.5145 5.26685 37.5145C4.6031 37.5145 4.00126 37.0862 3.39193 36.2461M5.37875 37.5104L3.39193 36.2461M1.71789 33.1299L1.71655 33.127C1.51853 32.703 1.328 32.295 1.14161 31.9222L1.71789 33.1299ZM1.71789 33.1299C1.71792 33.13 1.71795 33.13 1.71798 33.1301M1.71789 33.1299L1.71798 33.1301M3.39193 36.2461C2.78665 35.4117 2.26093 34.2914 1.71798 33.1301M3.39193 36.2461L1.71798 33.1301" stroke="#F27979"/>
<path d="M9.01111 26.8315H7.94862V25.769H9.01111V26.8315Z" fill="#F27979"/>
<path d="M9.01111 25.2378H7.94862V24.1753H9.01111V25.2378Z" fill="#F27979"/>
<path d="M10.6049 25.2378H9.54236V24.1753H10.6049V25.2378Z" fill="#F27979"/>
<path d="M10.6049 26.8315H9.54236V25.769H10.6049V26.8315Z" fill="#F27979"/>
<path d="M5.88099 29.6174L5.47671 30.0217L5.89268 30.4371C6.0919 30.6364 6.0919 30.9594 5.89268 31.1586C5.69346 31.3578 5.37099 31.3578 5.17177 31.1586L4.7558 30.7426L4.35152 31.1469C4.15283 31.3461 3.82983 31.3456 3.63062 31.1469C3.4314 30.9482 3.4314 30.6252 3.63062 30.426L4.0349 30.0217L3.63062 29.6174C3.4314 29.4182 3.4314 29.0952 3.63062 28.896C3.82983 28.6968 4.1523 28.6968 4.35152 28.896L4.7558 29.3003L5.16008 28.896C5.3593 28.6968 5.68177 28.6968 5.88099 28.896C6.08021 29.0952 6.08021 29.4182 5.88099 29.6174Z" fill="#F27979"/>
</g>
<defs>
<clipPath id="clip0_893_226062">
<rect width="17" height="17" fill="white" transform="translate(0 21)"/>
</clipPath>
</defs>
</svg>
