<svg width="38" height="37" viewBox="0 0 38 37" fill="none" xmlns="http://www.w3.org/2000/svg">
<path d="M35.7023 19.9394C35.5641 20.1052 35.294 20.2815 35.0035 20.4293C34.8653 20.4997 34.7379 20.5559 34.6453 20.5944C34.5991 20.6136 34.5622 20.6282 34.5374 20.6377L34.5099 20.6481L34.5041 20.6503L34.5039 20.6504L34.5032 20.6506L34.5031 20.6507L34.5029 20.6507L27.6455 23.0658V22.172L32.8499 20.3538L32.8508 20.3535C33.035 20.2888 33.2043 20.2094 33.3431 20.1118C33.4719 20.0212 33.6306 19.8756 33.6973 19.6591C33.7778 19.3975 33.6898 19.1533 33.5322 18.9874C33.3964 18.8445 33.2158 18.7613 33.052 18.7087L32.8992 19.1848M35.7023 19.9394L32.685 19.8818C33.3136 19.6609 33.4102 19.3488 32.8992 19.1848M35.7023 19.9394L35.7085 19.9316C35.7639 19.863 35.7811 19.8095 35.7847 19.775C35.7877 19.746 35.7848 19.7008 35.7412 19.6318C35.6399 19.4715 35.329 19.207 34.5544 18.967L34.5412 18.9629L34.5282 18.9581C33.1671 18.4522 31.4097 18.274 29.9784 18.4286C29.2556 18.5071 28.6368 18.6356 28.1997 18.7443C27.9814 18.7986 27.8091 18.8477 27.6928 18.8828C27.6758 18.8879 27.66 18.8928 27.6455 18.8972V19.8624M35.7023 19.9394L27.6455 19.8624M32.8992 19.1848C32.3892 19.0204 31.4657 19.0676 30.8366 19.2894L30.6734 18.8168L30.6718 18.8173C31.0412 18.6873 31.478 18.6137 31.8872 18.5929C32.2908 18.5724 32.7169 18.6007 33.0526 18.7089L32.8992 19.1848ZM27.6455 19.8624L30.6703 18.8179L27.6455 19.8624ZM16.4944 21.0111C15.9768 20.814 15.7473 20.5845 15.674 20.4376C15.6361 20.3616 15.6381 20.3088 15.6515 20.266C15.6672 20.216 15.714 20.1347 15.8383 20.0443C16.1406 19.8247 16.5707 19.619 16.9478 19.4631C17.132 19.3869 17.2956 19.3258 17.4127 19.2839C17.4712 19.263 17.5178 19.2469 17.5493 19.2363L17.5848 19.2244L17.5932 19.2217L17.595 19.2211L17.595 19.2211L17.5951 19.2212L17.6066 19.2172L21.8797 17.7275V18.6318L18.6609 19.7612L18.6605 19.7613C18.4763 19.8261 18.3073 19.9055 18.1685 20.0032C18.0396 20.094 17.8813 20.2397 17.8148 20.456C17.7345 20.717 17.8219 20.961 17.9794 21.1271C18.115 21.2703 18.2956 21.3537 18.4594 21.4063L18.4595 21.4063C18.7951 21.514 19.221 21.5424 19.6247 21.522C20.0344 21.5014 20.4719 21.4279 20.8414 21.2978L20.8429 21.2972L21.8797 20.9284V21.5505C20.2748 21.7951 18.568 21.6811 16.8835 21.1368L16.4944 21.0111ZM30.3068 16.5465C29.8623 16.8443 29.2031 16.9151 28.3621 16.5883V11.9171C28.3621 11.6048 28.3349 11.2398 28.1959 10.9165C28.0458 10.5673 27.7689 10.2788 27.3299 10.1564C27.143 10.0995 26.9434 10.0906 26.7493 10.1516C26.5525 10.2135 26.3981 10.3355 26.2856 10.4796C26.0703 10.7553 25.9924 11.1263 25.9924 11.4796V23.3207L23.5487 22.5603V8.61064C24.9209 8.90972 26.6432 9.42219 27.6347 9.74985C29.0613 10.2302 29.9259 10.742 30.4472 11.4001C30.9602 12.0477 31.1981 12.9111 31.1981 14.2324C31.1981 15.4832 30.8059 16.2121 30.3068 16.5465Z" stroke="#CAA23B"/>
<path d="M8.57777 17.3961C7.30417 17.265 6.08046 16.8309 5.00893 16.1301C4.10647 15.5414 3.90269 15.2993 3.90269 14.8163C3.90269 13.846 4.9695 12.1466 6.79473 10.2094C7.83136 9.10913 9.27529 7.81946 9.43145 7.8544C9.73499 7.92229 12.162 10.2897 13.0705 11.4041C14.5073 13.1664 15.1678 14.6093 14.8323 15.2526C14.5772 15.7415 12.9945 16.6973 11.8317 17.0645C10.7772 17.3769 9.67356 17.4894 8.57777 17.3961ZM2.68386 13.8075C1.9244 12.6313 1.47329 11.2827 1.37212 9.88628C1.31473 9.22961 1.36104 8.568 1.50936 7.92573C1.77607 6.44558 2.45316 5.07011 3.46349 3.95602C3.86674 3.53642 3.90276 3.52621 4.39437 3.6918C4.99131 3.89292 5.62872 4.33321 6.61755 5.22722L7.1944 5.74882L6.87938 6.13581C5.41712 7.93212 3.87333 10.4785 3.29172 12.0538C2.97547 12.9104 2.84792 13.77 2.984 14.1279C3.07586 14.3694 2.99148 14.2794 2.68386 13.8075ZM15.8471 14.0032C15.8938 13.4272 15.812 12.848 15.6077 12.3074C15.1321 10.8567 13.5425 8.15778 12.0828 6.32272L11.6235 5.74512L12.1207 5.28878C12.6076 4.82003 13.1387 4.3994 13.7066 4.03278C14.0605 3.80346 14.4582 3.64994 14.8744 3.5819C15.0197 3.5819 15.5313 4.11282 15.9443 4.69226C16.601 5.62901 17.0599 6.68978 17.2929 7.80981C17.4492 8.81248 17.4576 9.83265 17.3177 10.8377C17.1839 11.4914 16.9818 12.1292 16.7148 12.7407C16.4785 13.2325 16.2031 13.7044 15.8912 14.152C15.7902 14.2803 15.7903 14.28 15.8471 14.0032ZM8.71033 3.3078C7.98377 2.94671 7.21595 2.67541 6.42383 2.49986C6.17148 2.46236 5.91623 2.44799 5.66126 2.45692C5.18772 2.48086 5.20867 2.4561 5.96854 2.09717C6.56411 1.81077 7.1936 1.60109 7.84195 1.47315C8.87103 1.30395 9.92074 1.30257 10.9503 1.46907C11.8008 1.64703 12.6197 1.95179 13.3797 2.37314L13.5483 2.47694L13.1614 2.45737C12.3927 2.4187 11.2722 2.72915 10.0692 3.31465C9.84184 3.43305 9.60757 3.53771 9.36768 3.62806C9.34471 3.62383 9.04892 3.47971 8.71033 3.3078Z" stroke="#CAA23B" stroke-linecap="round" stroke-linejoin="round"/>
<g clip-path="url(#clip0_893_225933)">
<path d="M3.74869 25.3888L3.74875 25.3885C4.01212 24.2622 4.26594 23.1868 4.64672 22.3629C5.02857 21.5367 5.47092 21.1063 6.04147 21.0312C6.60147 20.9578 7.07627 21.2349 7.55262 21.8536C8.03518 22.4803 8.4308 23.3474 8.83038 24.2297C8.9538 24.5032 9.07595 24.7729 9.19348 25.0135L9.19352 25.0136C9.45857 25.5559 9.83696 25.8412 10.543 26.3011C10.5432 26.3012 10.5433 26.3012 10.5434 26.3013L10.699 26.4031L10.6998 26.4035L10.7592 26.4422L10.7604 26.443L10.857 26.5055C10.857 26.5056 10.8571 26.5056 10.8571 26.5056C11.5628 26.964 11.9766 27.1946 12.5786 27.218L12.58 27.2181C12.8436 27.2276 13.1337 27.2301 13.4273 27.2327L13.446 27.2329C14.415 27.2415 15.369 27.2526 16.138 27.4402C16.8975 27.6254 17.3427 27.9471 17.5015 28.487L17.5021 28.4891C17.5103 28.5165 17.5175 28.5456 17.5246 28.579C17.638 29.1163 17.3975 29.6878 16.7936 30.3558C16.1942 31.0186 15.3367 31.6666 14.4404 32.3415C14.4404 32.3416 14.4403 32.3416 14.4402 32.3417L14.4376 32.3436C14.1111 32.5893 13.7961 32.8263 13.5104 33.0535C12.6612 33.7286 11.8932 34.0508 11.1506 34.09C10.4091 34.1292 9.62309 33.8899 8.73029 33.3091C8.73029 33.3091 8.73028 33.3091 8.73028 33.3091L5.1712 30.9939C4.46575 30.5344 3.60277 29.8344 3.3508 28.6413C3.22449 28.0432 3.25451 27.3569 3.47255 26.5245C3.5639 26.1772 3.65214 25.8007 3.74342 25.4112L3.74869 25.3888Z" stroke="#CAA23B"/>
<path d="M7.77631 27.2932L7.96815 28.2017L7.05971 28.3935L6.86786 27.4851L7.77631 27.2932Z" fill="#CAA23B"/>
<path d="M6.41364 27.581L6.60548 28.4895L5.69703 28.6813L5.50519 27.7728L6.41364 27.581Z" fill="#CAA23B"/>
<path d="M6.12587 26.2183L6.31772 27.1268L5.40927 27.3186L5.21743 26.4102L6.12587 26.2183Z" fill="#CAA23B"/>
<path d="M7.48855 25.9306L7.68039 26.839L6.77194 27.0309L6.5801 26.1224L7.48855 25.9306Z" fill="#CAA23B"/>
<path d="M10.7234 29.4665L11.1421 29.7392L11.4222 29.3085C11.5566 29.1022 11.8327 29.0439 12.039 29.1783C12.2453 29.3126 12.3036 29.5883 12.1692 29.7946L11.8886 30.2254L12.3073 30.4981C12.5135 30.632 12.5714 30.9082 12.4375 31.1144C12.3036 31.3207 12.0274 31.379 11.8211 31.2446L11.4024 30.9719L11.1298 31.3906C10.9954 31.5969 10.7192 31.6552 10.5129 31.5209C10.3066 31.3865 10.2484 31.1108 10.3828 30.9045L10.6554 30.4858L10.2368 30.2132C10.0305 30.0788 9.97223 29.8031 10.1066 29.5968C10.241 29.3905 10.5171 29.3321 10.7234 29.4665Z" fill="#CAA23B"/>
</g>
<defs>
<clipPath id="clip0_893_225933">
<rect width="14.8557" height="14.8557" fill="white" transform="translate(4.41736 36.0508) rotate(-101.924)"/>
</clipPath>
</defs>
</svg>
