<svg width="49" height="34" viewBox="0 0 49 34" fill="none" xmlns="http://www.w3.org/2000/svg">
<path d="M2.38939 16.185C1.68755 13.2296 3.5144 10.2649 6.46977 9.56304L36.79 2.36262C39.7453 1.66078 42.7101 3.48763 43.4119 6.44301L44.1473 9.5397C44.1493 9.54801 44.1488 9.55671 44.1458 9.56472L44.0944 9.70438C43.4448 11.4699 43.9512 13.4531 45.3677 14.6911C45.3688 14.692 45.3697 14.6932 45.3705 14.6944C45.3715 14.6959 45.3722 14.6976 45.3726 14.6993L46.1491 17.9692C46.851 20.9245 45.0241 23.8893 42.0688 24.5911L11.7486 31.7916C8.79321 32.4934 5.82846 30.6665 5.12662 27.7112L4.3501 24.4413C4.34934 24.4381 4.34959 24.4348 4.35083 24.4317C5.0595 22.6891 4.62013 20.6899 3.24608 19.405L3.13738 19.3034C3.13114 19.2975 3.12676 19.29 3.12479 19.2817L2.38939 16.185Z" fill="white" stroke="#009F5C"/>
<path d="M3.18756 16.1533C3.18756 13.1158 5.65 10.6533 8.68756 10.6533H39.851C42.8886 10.6533 45.351 13.1158 45.351 16.1533V19.3361C45.351 19.3447 45.3485 19.353 45.3438 19.3601L45.2615 19.4841C44.2215 21.0518 44.2559 23.0983 45.3481 24.6301C45.3489 24.6313 45.3496 24.6326 45.3501 24.634C45.3507 24.6356 45.351 24.6374 45.351 24.6393V28C45.351 31.0376 42.8886 33.5 39.851 33.5H8.68756C5.64999 33.5 3.18756 31.0376 3.18756 28V24.6393C3.18756 24.636 3.18859 24.6328 3.19049 24.6301C4.28263 23.0983 4.31706 21.0518 3.27707 19.4841L3.1948 19.3601C3.19008 19.353 3.18756 19.3447 3.18756 19.3361V16.1533Z" fill="white" stroke="#009F5C"/>
<rect x="9.08508" y="19.3716" width="10.1968" height="9.00024" rx="1.5" fill="white" stroke="#009F5C"/>
<path d="M8.58508 22.2903H14.91M19.6537 22.4185H18.0298M14.2262 19.2126C13.4855 18.8707 11.7476 18.1357 10.8501 16.9056C10.118 15.9021 9.65348 12.9739 11.7476 14.1278C13.4228 15.0509 14.098 17.4184 14.2262 18.4868C14.326 17.6321 14.7647 15.7175 15.722 14.897C16.9186 13.8713 18.4144 13.8713 18.4999 15.1534C18.5853 16.4355 17.6879 17.2047 16.1921 17.8458C14.9955 18.3586 14.3829 18.6863 14.2262 18.786" stroke="#009F5C"/>
<path d="M39.9534 15.2817L29.6968 28.3162" stroke="#009F5C"/>
<circle cx="31.3635" cy="17.6322" r="1.59407" fill="white" stroke="#009F5C"/>
<circle cx="38.3721" cy="25.7523" r="1.59407" fill="white" stroke="#009F5C"/>
</svg>
