<svg width="30" height="36" viewBox="0 0 30 36" fill="none" xmlns="http://www.w3.org/2000/svg">
<path d="M29.3999 9.25V26.75C29.3999 33.75 27.6499 35.5 20.6499 35.5H10.1499C3.1499 35.5 1.3999 33.75 1.3999 26.75V9.25C1.3999 2.25 3.1499 0.5 10.1499 0.5H20.6499C27.6499 0.5 29.3999 2.25 29.3999 9.25Z" stroke="#5ED441" stroke-linecap="round" stroke-linejoin="round"/>
<path d="M18.8999 6.625H11.8999" stroke="#5ED441" stroke-linecap="round" stroke-linejoin="round"/>
<path d="M15.3999 30.425C16.898 30.425 18.1124 29.2106 18.1124 27.7125C18.1124 26.2144 16.898 25 15.3999 25C13.9018 25 12.6874 26.2144 12.6874 27.7125C12.6874 29.2106 13.9018 30.425 15.3999 30.425Z" stroke="#5ED441" stroke-linecap="round" stroke-linejoin="round"/>
</svg>
