<svg width="42" height="42" viewBox="0 0 42 42" fill="none" xmlns="http://www.w3.org/2000/svg">
<g clip-path="url(#clip0_893_225957)">
<path d="M27.2999 1.75H14.6999C12.3803 1.75 10.4999 3.66523 10.4999 6.02778V35.9722C10.4999 38.3348 12.3803 40.25 14.6999 40.25H27.2999C29.6195 40.25 31.4999 38.3348 31.4999 35.9722V6.02778C31.4999 3.66523 29.6195 1.75 27.2999 1.75Z" fill="white"/>
<path d="M16.7999 6.02778H25.1999M14.6999 1.75H27.2999C29.6195 1.75 31.4999 3.66523 31.4999 6.02778V35.9722C31.4999 38.3348 29.6195 40.25 27.2999 40.25H14.6999C12.3803 40.25 10.4999 38.3348 10.4999 35.9722V6.02778C10.4999 3.66523 12.3803 1.75 14.6999 1.75Z" stroke="#AF74F7" stroke-linecap="round" stroke-linejoin="round"/>
</g>
<defs>
<clipPath id="clip0_893_225957">
<rect width="42" height="42" fill="white"/>
</clipPath>
</defs>
</svg>
