<svg width="43" height="42" viewBox="0 0 43 42" fill="none" xmlns="http://www.w3.org/2000/svg">
<path d="M38.5 19V11.27C38.5 5.0575 36.9425 3.5 30.7125 3.5H11.27C5.0575 3.5 3.5 5.0575 3.5 11.27V22.365C3.5 28.5775 5.0575 30.135 11.27 30.1175H22.5" stroke="#269262" stroke-linecap="round" stroke-linejoin="round"/>
<path d="M21 30.1348V38.4998" stroke="#269262" stroke-linecap="round" stroke-linejoin="round"/>
<path d="M3.5 22.75H23" stroke="#269262" stroke-linecap="round" stroke-linejoin="round"/>
<path d="M13.125 38.5H28.875" stroke="#269262" stroke-linecap="round" stroke-linejoin="round"/>
<path d="M37.1368 21.7215L37.1365 21.7214L37.1131 21.7104C36.6983 21.5159 36.2984 21.3285 35.9322 21.1446C35.0444 20.7 34.2719 20.5 33.5583 20.5C32.1331 20.5 31.1276 21.3183 30.4429 22.0029C30.4429 22.003 30.4428 22.003 30.4428 22.0031L27.009 25.4406C27.009 25.4406 27.009 25.4406 27.0089 25.4406C26.1404 26.3102 25.6767 27.1468 25.5422 28.0057C25.4075 28.8656 25.592 29.8171 26.1515 30.9364L37.1368 21.7215ZM37.1368 21.7215C38.3336 22.2817 39.4851 22.8233 40.3246 23.4498C41.1662 24.0778 41.5684 24.6957 41.5146 25.3897C41.4616 26.0713 41.0116 26.5546 40.1959 26.9467C39.3709 27.3432 38.2975 27.5827 37.2173 27.821C36.8819 27.8945 36.5521 27.9673 36.2562 28.0416L36.2561 28.0417C35.6074 28.2049 35.2108 28.5475 34.5289 29.2293C34.5288 29.2294 34.5287 29.2295 34.5286 29.2297L34.3778 29.3799L34.3772 29.3805L34.3198 29.4379L34.3188 29.4389L34.2259 29.5324C34.2258 29.5324 34.2258 29.5325 34.2258 29.5325C33.5456 30.2142 33.2032 30.6108 33.04 31.2582L33.0396 31.2596C32.9669 31.5516 32.8956 31.8749 32.8232 32.2034L32.8187 32.2237C32.5804 33.3044 32.3409 34.3788 31.9447 35.2045C31.5528 36.0214 31.0701 36.4712 30.3908 36.5244L30.3886 36.5245M37.1368 21.7215L30.3886 36.5245M30.3886 36.5245C30.3537 36.5274 30.3173 36.5287 30.2767 36.5287C29.613 36.5287 29.0111 36.1004 28.4018 35.2603M30.3886 36.5245L28.4018 35.2603M26.7278 32.1441L26.7264 32.1412C26.5284 31.7172 26.3379 31.3092 26.1515 30.9364L26.7278 32.1441ZM26.7278 32.1441C26.7278 32.1441 26.7278 32.1442 26.7279 32.1442M26.7278 32.1441L26.7279 32.1442M28.4018 35.2603C27.7965 34.4258 27.2708 33.3056 26.7279 32.1442M28.4018 35.2603L26.7279 32.1442" stroke="#269262"/>
<path d="M34.021 25.8457H32.9585V24.7832H34.021V25.8457Z" fill="#269262"/>
<path d="M34.021 24.252H32.9585V23.1895H34.021V24.252Z" fill="#269262"/>
<path d="M35.6148 24.252H34.5523V23.1895H35.6148V24.252Z" fill="#269262"/>
<path d="M35.6148 25.8457H34.5523V24.7832H35.6148V25.8457Z" fill="#269262"/>
<path d="M30.8909 28.6316L30.4866 29.0359L30.9026 29.4513C31.1018 29.6505 31.1018 29.9735 30.9026 30.1727C30.7033 30.372 30.3809 30.372 30.1817 30.1727L29.7657 29.7568L29.3614 30.161C29.1627 30.3603 28.8397 30.3597 28.6405 30.161C28.4413 29.9624 28.4413 29.6394 28.6405 29.4401L29.0448 29.0359L28.6405 28.6316C28.4413 28.4324 28.4413 28.1094 28.6405 27.9101C28.8397 27.7109 29.1622 27.7109 29.3614 27.9101L29.7657 28.3144L30.17 27.9101C30.3692 27.7109 30.6917 27.7109 30.8909 27.9101C31.0901 28.1094 31.0901 28.4324 30.8909 28.6316Z" fill="#269262"/>
</svg>
