<svg width="43" height="42" viewBox="0 0 43 42" fill="none" xmlns="http://www.w3.org/2000/svg">
<path d="M39.0695 28.1313C38.7757 28.4854 38.2426 28.823 37.7266 29.0855C37.4741 29.214 37.2422 29.3164 37.0735 29.3865C36.9894 29.4215 36.9216 29.4482 36.8755 29.466C36.8524 29.4749 36.8349 29.4815 36.8234 29.4857L36.8115 29.4902L36.8109 29.4903L36.8083 29.4913L36.808 29.4914L24.3049 33.8947V31.5348L33.664 28.2652L33.6648 28.2649C33.967 28.1587 34.2291 28.0336 34.435 27.8889C34.631 27.7511 34.831 27.5568 34.9122 27.2931C35.0073 26.9842 34.9071 26.694 34.7098 26.4863C34.5343 26.3016 34.2863 26.1807 34.0267 26.0973C33.4998 25.9276 32.8052 25.8774 32.1219 25.9121C31.4328 25.9471 30.705 26.0711 30.0998 26.2843C30.0992 26.2845 30.0987 26.2847 30.0981 26.2849L24.3049 28.2854V25.7973L24.3347 25.7875L24.3347 25.7875L24.341 25.7853L24.3411 25.7853L24.3411 25.7853L24.3412 25.7852L24.3415 25.7851L24.3444 25.7841L24.3583 25.7794C24.3711 25.7751 24.3908 25.7686 24.4173 25.76C24.4702 25.7427 24.55 25.7174 24.6544 25.6859C24.8633 25.6229 25.1707 25.5352 25.5593 25.4386C26.337 25.2453 27.437 25.0168 28.7222 24.8772C31.2783 24.6011 34.413 24.9173 36.8554 25.8251L36.8684 25.83L36.8816 25.8341C38.2654 26.2628 38.9153 26.7608 39.1645 27.1553C39.282 27.3415 39.3112 27.504 39.2966 27.6449C39.2814 27.7913 39.2147 27.9515 39.082 28.1159L39.0695 28.1313ZM5.07738 30.135V30.1368C4.09211 29.7698 3.58323 29.3121 3.39424 28.9332C3.28775 28.7197 3.27814 28.5273 3.33266 28.3533C3.38945 28.1722 3.53015 27.9682 3.797 27.7741C4.36277 27.3631 5.14863 26.9897 5.81565 26.7138C6.14483 26.5777 6.43685 26.4686 6.64626 26.3937C6.75085 26.3563 6.83454 26.3275 6.8916 26.3082C6.92012 26.2986 6.94197 26.2913 6.95642 26.2866L6.97246 26.2813L6.97615 26.2801L6.97688 26.2799L6.97691 26.28L6.98839 26.276L14.9648 23.4952V25.8714L9.081 27.9359L9.08061 27.936C8.77879 28.0422 8.51691 28.1673 8.31118 28.3122C8.11528 28.4502 7.91573 28.6446 7.83465 28.9082C7.73981 29.2165 7.83932 29.5065 8.03641 29.7145C8.21172 29.8996 8.45952 30.0206 8.71896 30.104L8.71904 30.104C9.24604 30.2732 9.94093 30.3235 10.6246 30.289C11.3144 30.2542 12.043 30.1305 12.6482 29.9174L12.6498 29.9169L14.9648 29.0932V31.0332C14.9066 31.0426 14.8482 31.0521 14.79 31.0616C11.8832 31.5273 8.78573 31.3332 5.73111 30.3462L5.07738 30.135ZM29.546 22.2679C28.5888 22.9091 27.2145 22.9892 25.559 22.2813V13.8549C25.559 13.3225 25.5111 12.746 25.2987 12.252C25.0752 11.7321 24.6722 11.3135 24.0227 11.1338C23.7553 11.0515 23.4826 11.0419 23.224 11.1231C22.963 11.2051 22.7533 11.3681 22.5956 11.5701C22.29 11.9616 22.162 12.5161 22.162 13.0894V34.3207L17.1355 32.7565V7.6061C19.6216 8.11404 22.9301 9.09525 24.7797 9.7065C27.3 10.5551 28.8968 11.48 29.8769 12.7174C30.8487 13.9443 31.272 15.5529 31.272 17.9067C31.272 20.1638 30.5631 21.5865 29.546 22.2679Z" stroke="#F38989"/>
</svg>
