<svg width="43" height="47" viewBox="0 0 43 47" fill="none" xmlns="http://www.w3.org/2000/svg">
<path d="M15.4147 7.20801L30.2616 16.1527" stroke="#2097CA" stroke-miterlimit="10" stroke-linecap="round" stroke-linejoin="round"/>
<path d="M14.8062 14.936L16.2908 15.8305" stroke="#2097CA" stroke-miterlimit="10" stroke-linecap="round" stroke-linejoin="round"/>
<path d="M18.1467 16.9482L21.1161 18.7372" stroke="#2097CA" stroke-miterlimit="10" stroke-linecap="round" stroke-linejoin="round"/>
<path d="M20.9468 5.4823L29.1943 10.4511C31.837 12.0432 32.1041 13.0945 30.5343 15.7002L26.8626 21.7948C25.2928 24.4005 24.2385 24.6557 21.6032 23.068L13.3483 18.0948C10.7085 16.5145 10.4414 15.4632 12.0111 12.8576L15.6874 6.75549C17.2572 4.14985 18.3114 3.89462 20.9468 5.4823Z" stroke="#2097CA" stroke-linecap="round" stroke-linejoin="round"/>
<path d="M7.75 19.5L10.7178 20.4722C11.8207 20.8334 12.634 21.7586 12.8375 22.8834L14.5794 32.5122C14.8485 33.9997 16.1646 35.0833 17.702 35.0833H29.7859C31.1985 35.0833 32.4408 34.1653 32.8329 32.8317L35.1234 25.04C35.7093 23.047 34.1875 21.0583 32.0765 21.0583H31.5366M18.8504 40.5375C18.8504 41.8285 17.7855 42.875 16.4718 42.875C15.1581 42.875 14.0931 41.8285 14.0931 40.5375C14.0931 39.2465 15.1581 38.2 16.4718 38.2C17.7855 38.2 18.8504 39.2465 18.8504 40.5375ZM31.5366 40.5375C31.5366 41.8285 30.4717 42.875 29.158 42.875C27.8443 42.875 26.7793 41.8285 26.7793 40.5375C26.7793 39.2465 27.8443 38.2 29.158 38.2C30.4717 38.2 31.5366 39.2465 31.5366 40.5375Z" stroke="#2097CA" stroke-linecap="round" stroke-linejoin="round"/>
</svg>
