<svg width="43" height="42" viewBox="0 0 43 42" fill="none" xmlns="http://www.w3.org/2000/svg">
<path d="M39.1 20.8075V22.365C39.1 28.595 37.5425 30.135 31.33 30.135H11.87C5.65748 30.135 4.09998 28.5775 4.09998 22.365V11.27C4.09998 5.0575 5.65748 3.5 11.87 3.5H14.6" stroke="#10BBB1" stroke-linecap="round" stroke-linejoin="round"/>
<path d="M21.6 30.1348V38.4998" stroke="#10BBB1" stroke-linecap="round" stroke-linejoin="round"/>
<path d="M4.09998 22.75H39.1" stroke="#10BBB1" stroke-linecap="round" stroke-linejoin="round"/>
<path d="M13.725 38.5H29.475" stroke="#10BBB1" stroke-linecap="round" stroke-linejoin="round"/>
<path d="M31.8549 16.3976H23.5249C21.1099 16.3976 20.3049 14.7876 20.3049 13.1776V7.01758C20.3049 5.09258 21.8799 3.51758 23.8049 3.51758H31.8549C33.6399 3.51758 35.0749 4.95258 35.0749 6.73758V13.1776C35.0749 14.9626 33.6399 16.3976 31.8549 16.3976Z" stroke="#10BBB1" stroke-linecap="round" stroke-linejoin="round"/>
<path d="M37.1924 13.8598L35.075 12.3723V7.54233L37.1924 6.05483C38.2424 5.33733 39.0999 5.77483 39.0999 7.05233V12.8798C39.0999 14.1573 38.2424 14.5948 37.1924 13.8598Z" stroke="#10BBB1" stroke-linecap="round" stroke-linejoin="round"/>
</svg>
