<svg width="43" height="42" viewBox="0 0 43 42" fill="none" xmlns="http://www.w3.org/2000/svg">
<path d="M19.0104 39.9502C15.9572 39.6359 13.0236 38.5953 10.4549 36.9154C8.29141 35.5039 7.80289 34.9237 7.80289 33.7657C7.80289 31.4398 10.3603 27.3658 14.7359 22.7217C17.221 20.084 20.6826 16.9923 21.0569 17.0761C21.7846 17.2388 27.6028 22.9141 29.7809 25.5857C33.2252 29.8104 34.8085 33.2695 34.0043 34.8116C33.3928 35.9838 29.5985 38.2751 26.8109 39.1554C24.2831 39.9043 21.6373 40.1738 19.0104 39.9502ZM4.88101 31.3474C3.06036 28.5276 1.97892 25.2948 1.73639 21.9471C1.59881 20.3729 1.70983 18.7868 2.06539 17.2471C2.70476 13.6987 4.32794 10.4013 6.74999 7.73054C7.71672 6.72463 7.80307 6.70015 8.98159 7.09711C10.4126 7.57927 11.9407 8.63477 14.3112 10.778L15.6941 12.0284L14.9389 12.9561C11.4334 17.2624 7.7325 23.3667 6.33823 27.1433C5.58007 29.1968 5.2743 31.2574 5.60052 32.1154C5.82074 32.6945 5.61845 32.4788 4.88101 31.3474ZM36.437 31.8165C36.5489 30.4356 36.3529 29.0472 35.8631 27.7513C34.723 24.2734 30.9122 17.8034 27.4129 13.4042L26.312 12.0195L27.5037 10.9256C28.6711 9.8018 29.9444 8.79345 31.3057 7.91454C32.1542 7.3648 33.1074 6.99678 34.1052 6.83366C34.4536 6.83366 35.68 8.10643 36.6702 9.4955C38.2445 11.7412 39.3445 14.2842 39.9032 16.9692C40.2778 19.3729 40.2978 21.8185 39.9627 24.228C39.6417 25.795 39.1572 27.3241 38.5173 28.79C37.9508 29.9688 37.2905 31.1002 36.5428 32.1733C36.3007 32.4808 36.3008 32.4801 36.437 31.8165ZM19.3282 6.17657C17.5864 5.31093 15.7457 4.66053 13.8468 4.23971C13.2418 4.14981 12.6299 4.11535 12.0187 4.13677C10.8835 4.19416 10.9337 4.13479 12.7553 3.27433C14.1831 2.58775 15.6922 2.08508 17.2464 1.77837C19.7134 1.37275 22.2299 1.36945 24.698 1.7686C26.7369 2.19523 28.7002 2.92582 30.522 3.93591L30.9263 4.18474L29.9988 4.13784C28.1559 4.04513 25.4697 4.78938 22.5858 6.19298C22.0407 6.47682 21.4791 6.72772 20.904 6.94432C20.849 6.93418 20.1399 6.58869 19.3282 6.17657Z" stroke="#D1AE54" stroke-linecap="round" stroke-linejoin="round"/>
</svg>
